<?xml version="1.0" encoding="utf-8"?>
<!-- Generator: Adobe Illustrator 18.0.0, SVG Export Plug-In . SVG Version: 6.00 Build 0)  -->
<!DOCTYPE svg PUBLIC "-//W3C//DTD SVG 1.1//EN" "http://www.w3.org/Graphics/SVG/1.1/DTD/svg11.dtd">
<svg version="1.1" id="Layer_1" xmlns="http://www.w3.org/2000/svg" xmlns:xlink="http://www.w3.org/1999/xlink" x="0px" y="0px"
	 viewBox="0 0 50 53" enable-background="new 0 0 50 53" xml:space="preserve">
<path fill="#91231D" d="M1.2,52c0.7,0.7,1.6,1,2.6,1c1.1,0,2.1-0.4,2.9-1.3l7.5-8.4C17.7,45.7,22,47,26.6,47
	c13,0,23.5-10.5,23.5-23.5C50.1,10.5,39.5,0,26.6,0C13.6,0,3.1,10.5,3.1,23.5c0,5.6,2,10.8,5.3,14.8l-7.5,8.3
	C-0.5,48.2-0.4,50.6,1.2,52z M26.6,38.3c-8,0-14.8-6.8-14.8-14.8c0-8.2,6.6-14.8,14.8-14.8c8.2,0,14.8,6.6,14.8,14.8
	C41.4,31.6,34.7,38.3,26.6,38.3z"/>
</svg>
